<?xml version="1.0" encoding="UTF-8"?>
<svg id="Layer_2" data-name="Layer 2" xmlns="http://www.w3.org/2000/svg" viewBox="0 0 607.2 535.18">
  <defs>
    <style>
      .cls-1 {
        fill: #f8ec84;
      }

      .cls-2 {
        fill: #008a8c;
      }

      .cls-3 {
        fill: #fff;
      }

      .cls-4 {
        fill: #add9b5;
      }
    </style>
  </defs>
  <path class="cls-4" d="M341.8,455.73c-38.36-77.79-77.17-158.89-113.44-237.86-23.46-51.09-23.09-106.58,7.95-151.92,14.88-21.73,34.92-38.35,58.18-46.93,44.07-16.26,98.91-3.38,132.91,39.26,10.83,13.58,17.88,28.09,22.38,42.18,10.47,32.79,1.4,83.06-11.62,114.75-22.46,54.67-37.86,95.08-60.32,149.75"/>
  <ellipse class="cls-4" cx="335.66" cy="123.32" rx="114.64" ry="110.59"/>
  <rect class="cls-2" x="63.2" y="170.56" width="60" height="238.67" rx="10.45" ry="10.45"/>
  <rect class="cls-2" x="63.2" y="315.94" width="470.75" height="42.67"/>
  <path class="cls-2" d="M502.52,269.22h25.07c3.46,0,6.28,2.81,6.28,6.28v126.34c0,3.12-2.53,5.65-5.65,5.65h-28.3c-2.93,0-5.3-2.37-5.3-5.3v-125.06c0-4.37,3.54-7.91,7.91-7.91Z"/>
  <ellipse class="cls-1" cx="161.13" cy="282.09" rx="26.55" ry="26.61"/>
  <path class="cls-1" d="M479.97,307.46c0,.15,0,.3-.01,.45H193.28c-.01-.15-.01-.3-.01-.45,0-25.07,64.19-45.39,143.35-45.39s143.35,20.32,143.35,45.39Z"/>
  <path class="cls-1" d="M467.49,359.94c-37.24,30.59-85.81,46.82-133.94,47.52-37.61,.95-72.54-6.45-105.28-25.41-10.5-6.08-20.55-12.99-29.29-21.36l.74-1.04c16.03,7.91,32.14,14.61,48.91,20.27,27.59,8.76,55.94,16.25,85,17.36,35.08,1.03,70.45-5.9,102.36-20.71,10.65-5.05,20.99-10.88,30.73-17.65l.77,1.01h0Z"/>
  <ellipse class="cls-3" cx="333.06" cy="139.11" rx="15.2" ry="43.49"/>
</svg>