<?xml version="1.0" encoding="UTF-8"?>
<svg id="Layer_1" data-name="Layer 1" xmlns="http://www.w3.org/2000/svg" xmlns:xlink="http://www.w3.org/1999/xlink" viewBox="0 0 535.84 590.02">
  <defs>
    <style>
      .cls-1 {
        fill: url(#linear-gradient);
      }

      .cls-2 {
        fill: #fff;,
        width:25px;,
     height:27.984px;
      }
    </style>
    <linearGradient id="linear-gradient" x1="260.87" y1="-414.16" x2="269.82" y2="390.18" gradientUnits="userSpaceOnUse">
      <stop offset="0" stop-color="#617a55"/>
      <stop offset="0" stop-color="#67825c"/>
      <stop offset="0" stop-color="#799972"/>
      <stop offset="0" stop-color="#8bb087"/>
      <stop offset="1" stop-color="#a4cfa4"/>
    </linearGradient>
  </defs>
  <path class="cls-2" d="M184.99,589s-.02,0-.03,.01c-1.41,.58-2.92-.54-2.85-2.06"/>
  <path class="cls-1" d="M258.35,3.4L5.67,207.77C2.03,210.71-.05,215.15,0,219.82l3.92,328.29c.1,8.36,6.91,15.09,15.27,15.09h494.65c8.31,0,15.09-6.65,15.26-14.95l6.73-328.34c.1-4.72-1.99-9.22-5.66-12.18L277.55,3.4c-5.6-4.53-13.6-4.53-19.2,0Z"/>
  <path class="cls-2" d="M184.35,563.55c1.81-1.84,64.56-26.92,64.42-29.51-.78-14.68-1.42-29.37-2.13-44.05-.76-15.83-1.54-31.66-2.32-47.49-.23-4.56-2.45-6.19-6.73-4.84-20.24,6.35-40.47,12.75-60.71,19.12-23.67,7.45-47.35,14.9-71.02,22.34-.78,.24-1.57,.44-2.69,.76-.11-6.99-.27-13.63,1.32-20.18,.65-2.66,1.91-4.77,4.17-6.27,9.95-6.55,19.68-13.45,29.85-19.62,34.21-20.72,68.56-41.2,102.88-61.72,2.17-1.3,2.93-3.02,2.97-5.45,.3-18.61,.55-37.21,1.01-55.82,.26-10.56,.43-21.15,1.42-31.65,1.02-10.8,6.23-19.72,14.35-26.69,3.64-3.13,6.2-3.12,9.85,.08,8.1,7.09,13.76,16.04,14.23,26.97,1.2,27.76,1.69,55.56,2.39,83.34,.21,8.48-.13,7.2,6.28,11.06,37.79,22.8,75.57,45.62,113.3,68.52,5.02,3.04,9.7,6.66,14.67,9.79,3.68,2.32,5.75,5.51,6.11,9.83,.49,5.83,.85,11.68,1.3,18-5.86-1.84-11-3.45-16.13-5.06-36.47-11.48-72.94-22.96-109.41-34.44-3.22-1.01-6.42-2.08-9.65-3.04-3.85-1.14-6.15,.53-6.35,4.64-.68,13.92-1.3,27.84-1.97,41.76-.8,16.7-1.59,33.4-2.51,50.1-.13,2.4,53.5,30.57,55.62,29.51"/>
</svg>